<?xml version="1.0" encoding="utf-8"?>
<!-- Generator: Adobe Illustrator 18.0.0, SVG Export Plug-In . SVG Version: 6.00 Build 0)  -->
<!DOCTYPE svg PUBLIC "-//W3C//DTD SVG 1.1//EN" "http://www.w3.org/Graphics/SVG/1.1/DTD/svg11.dtd">
<svg version="1.1" id="Layer_1" xmlns="http://www.w3.org/2000/svg" xmlns:xlink="http://www.w3.org/1999/xlink" x="0px" y="0px"
	 viewBox="0 0 100 100" enable-background="new 0 0 100 100" xml:space="preserve">
<path fill="#fcee21" d="M76.2,46.7c-3.8-3.2-11.3-6.3-22.6-9.2l-0.1-16.2c2.1,0.4,3.8,2,4.7,3c0.8,1,1.3,3.4,2.4,6l20.7-3.2
	c-1.3-5.7-4.2-10.2-8.6-13.5c-4.4-3.3-10.7-5.2-19.1-5.7l0-6.6h-8.1l0,6.6c-9.1,0.5-16,2.8-20.6,7.1c-4.6,4.3-6.9,9.6-6.9,16
	c0,4.7,1.2,8.6,3.5,11.8c2.3,3.2,5,5.6,8.2,7c3.1,1.5,8.4,3.2,15.9,5.2v18.9c-2.6-1.2-4.5-2.6-5.6-4.2c-1.1-1.6-2-4.2-2.7-7.7
	l-22.5,2.5c0.7,3.6,1.7,6.6,3,9.1c1.4,2.5,3.2,4.9,5.7,7c2.5,2.2,5.4,3.9,8.8,5.1c3.4,1.2,7.8,2.1,13.3,2.6v10.1h8.1V88.6
	c4.5-0.2,8.4-0.7,11.6-1.7c3.1-1,6.1-2.5,8.9-4.7c2.8-2.2,5.1-4.9,6.9-8.1c1.8-3.3,2.7-6.8,2.7-10.7C83.7,56.5,81.1,51.1,76.2,46.7z
	 M45.3,36c-3.2-0.6-5.5-1.5-6.9-2.9c-1.5-1.3-1.7-3-1.7-4.6c0-1.5,0.8-3.3,1.7-4.2c1.3-1.4,3.2-2.7,7-3.1V36z M60.5,71.2
	c-1.5,1.6-3.8,2.7-6.9,3.4V57.4c3.6,1.2,6,2.5,7.3,4c1.3,1.4,1.9,2.9,1.9,4.6C62.7,67.9,62,69.7,60.5,71.2z"/>
</svg>
