<?xml version="1.0" encoding="utf-8"?>
<!-- Generator: Adobe Illustrator 16.0.0, SVG Export Plug-In . SVG Version: 6.00 Build 0)  -->
<!DOCTYPE svg PUBLIC "-//W3C//DTD SVG 1.1//EN" "http://www.w3.org/Graphics/SVG/1.1/DTD/svg11.dtd">
<svg version="1.1" id="US_UK_Download_on_the" xmlns="http://www.w3.org/2000/svg" xmlns:xlink="http://www.w3.org/1999/xlink"
	 x="0px" y="0px" width="130px" height="38.519px" viewBox="0 0 130 38.519" enable-background="new 0 0 130 38.519"
	 xml:space="preserve">
<g>
	<path fill="#A6A6A6" d="M125.375,38.519H4.554C2.043,38.519,0,36.47,0,33.962V4.551C0,2.042,2.043,0,4.554,0h120.821
		C127.884,0,130,2.042,130,4.551v29.411C130,36.47,127.884,38.519,125.375,38.519L125.375,38.519z"/>
	<path d="M129.068,33.962c0,2.037-1.65,3.688-3.693,3.688H4.554c-2.041,0-3.697-1.65-3.697-3.688V4.55
		c0-2.037,1.656-3.693,3.697-3.693h120.821c2.043,0,3.692,1.656,3.692,3.693L129.068,33.962L129.068,33.962z"/>
	<g>
		<g>
			<path fill="#FFFFFF" d="M29.012,19.051c-0.028-3.104,2.542-4.613,2.659-4.684c-1.455-2.122-3.71-2.411-4.503-2.434
				c-1.894-0.199-3.731,1.133-4.696,1.133c-0.984,0-2.47-1.114-4.071-1.082c-2.061,0.032-3.989,1.225-5.046,3.078
				c-2.182,3.777-0.555,9.329,1.536,12.383c1.046,1.496,2.268,3.164,3.867,3.105c1.565-0.064,2.149-0.996,4.038-0.996
				c1.872,0,2.42,0.996,4.051,0.959c1.68-0.027,2.737-1.502,3.746-3.012c1.208-1.713,1.694-3.402,1.713-3.488
				C32.266,24.001,29.044,22.771,29.012,19.051z"/>
			<path fill="#FFFFFF" d="M25.931,9.924c0.841-1.053,1.417-2.484,1.257-3.938c-1.218,0.054-2.741,0.843-3.619,1.873
				c-0.776,0.907-1.469,2.394-1.29,3.792C23.647,11.753,25.053,10.96,25.931,9.924z"/>
		</g>
	</g>
	<g>
		<path fill="#FFFFFF" d="M51.658,30.337h-2.187l-1.198-3.764H44.11l-1.142,3.764h-2.129l4.125-12.815h2.548L51.658,30.337z
			 M47.912,24.993l-1.083-3.346c-0.114-0.342-0.329-1.146-0.646-2.414h-0.039c-0.126,0.546-0.329,1.35-0.608,2.414l-1.064,3.346
			H47.912z"/>
		<path fill="#FFFFFF" d="M62.267,25.603c0,1.572-0.424,2.814-1.274,3.727c-0.761,0.811-1.706,1.217-2.833,1.217
			c-1.217,0-2.091-0.436-2.625-1.311h-0.038v4.867h-2.053v-9.965c0-0.986-0.026-2-0.076-3.041h1.806l0.115,1.465h0.039
			c0.685-1.104,1.724-1.654,3.118-1.654c1.09,0,2,0.43,2.728,1.291C61.903,23.062,62.267,24.196,62.267,25.603z M60.176,25.679
			c0-0.898-0.203-1.641-0.609-2.225c-0.444-0.607-1.04-0.912-1.787-0.912c-0.506,0-0.967,0.168-1.378,0.504
			s-0.682,0.775-0.808,1.322c-0.063,0.254-0.096,0.461-0.096,0.625v1.541c0,0.672,0.207,1.238,0.619,1.701s0.947,0.695,1.606,0.695
			c0.773,0,1.375-0.299,1.806-0.895C59.96,27.44,60.176,26.655,60.176,25.679z"/>
		<path fill="#FFFFFF" d="M72.896,25.603c0,1.572-0.425,2.814-1.275,3.727c-0.76,0.811-1.704,1.217-2.832,1.217
			c-1.217,0-2.092-0.436-2.623-1.311h-0.038v4.867h-2.053v-9.965c0-0.986-0.026-2-0.076-3.041h1.805l0.115,1.465h0.038
			c0.684-1.104,1.723-1.654,3.118-1.654c1.089,0,1.999,0.43,2.729,1.291C72.53,23.062,72.896,24.196,72.896,25.603z M70.804,25.679
			c0-0.898-0.203-1.641-0.609-2.225c-0.443-0.607-1.038-0.912-1.786-0.912c-0.508,0-0.967,0.168-1.379,0.504
			s-0.681,0.775-0.807,1.322c-0.063,0.254-0.096,0.461-0.096,0.625v1.541c0,0.672,0.206,1.238,0.616,1.701
			c0.412,0.463,0.947,0.695,1.608,0.695c0.773,0,1.375-0.299,1.806-0.895S70.804,26.655,70.804,25.679z"/>
		<path fill="#FFFFFF" d="M84.778,26.743c0,1.09-0.378,1.977-1.138,2.662c-0.835,0.748-1.997,1.121-3.491,1.121
			c-1.379,0-2.484-0.266-3.321-0.797l0.476-1.713c0.901,0.547,1.891,0.82,2.969,0.82c0.772,0,1.374-0.176,1.807-0.525
			c0.431-0.348,0.646-0.816,0.646-1.398c0-0.521-0.177-0.959-0.532-1.314c-0.354-0.355-0.944-0.686-1.768-0.99
			c-2.244-0.838-3.365-2.062-3.365-3.676c0-1.052,0.394-1.917,1.18-2.589c0.784-0.674,1.83-1.01,3.137-1.01
			c1.166,0,2.135,0.203,2.908,0.609l-0.513,1.674c-0.723-0.394-1.54-0.59-2.454-0.59c-0.722,0-1.286,0.178-1.69,0.532
			c-0.342,0.317-0.513,0.703-0.513,1.16c0,0.508,0.194,0.926,0.588,1.256c0.342,0.303,0.963,0.633,1.865,0.988
			c1.103,0.445,1.911,0.963,2.433,1.559C84.519,25.114,84.778,25.856,84.778,26.743z"/>
		<path fill="#FFFFFF" d="M91.566,22.638h-2.263v4.486c0,1.141,0.398,1.711,1.198,1.711c0.366,0,0.671-0.031,0.912-0.096
			l0.056,1.559c-0.404,0.152-0.937,0.229-1.597,0.229c-0.811,0-1.444-0.248-1.901-0.742c-0.456-0.494-0.685-1.324-0.685-2.49v-4.658
			h-1.349v-1.541h1.349v-1.692l2.017-0.607v2.3h2.263V22.638z"/>
		<path fill="#FFFFFF" d="M101.777,25.642c0,1.42-0.406,2.586-1.218,3.498c-0.851,0.938-1.979,1.406-3.386,1.406
			c-1.356,0-2.436-0.449-3.241-1.348c-0.805-0.9-1.207-2.035-1.207-3.404c0-1.432,0.415-2.605,1.245-3.518
			c0.828-0.912,1.947-1.369,3.354-1.369c1.355,0,2.447,0.451,3.271,1.352C101.384,23.132,101.777,24.259,101.777,25.642z
			 M99.646,25.706c0-0.852-0.181-1.582-0.55-2.191c-0.431-0.738-1.047-1.105-1.843-1.105c-0.825,0-1.453,0.369-1.883,1.105
			c-0.37,0.609-0.551,1.354-0.551,2.232c0,0.852,0.181,1.582,0.551,2.189c0.443,0.738,1.063,1.107,1.864,1.107
			c0.784,0,1.398-0.377,1.844-1.125C99.456,27.298,99.646,26.56,99.646,25.706z"/>
		<path fill="#FFFFFF" d="M108.45,22.903c-0.203-0.039-0.42-0.057-0.647-0.057c-0.722,0-1.28,0.271-1.674,0.818
			c-0.342,0.48-0.514,1.09-0.514,1.824v4.848h-2.052l0.019-6.33c0-1.064-0.025-2.035-0.077-2.908h1.789l0.075,1.768h0.057
			c0.217-0.607,0.559-1.098,1.026-1.465c0.457-0.33,0.952-0.494,1.484-0.494c0.189,0,0.361,0.014,0.514,0.037V22.903z"/>
		<path fill="#FFFFFF" d="M117.632,25.28c0,0.367-0.024,0.678-0.075,0.93h-6.159c0.024,0.914,0.321,1.613,0.893,2.094
			c0.52,0.43,1.191,0.645,2.016,0.645c0.911,0,1.744-0.145,2.492-0.436l0.321,1.424c-0.874,0.381-1.906,0.572-3.098,0.572
			c-1.433,0-2.558-0.422-3.377-1.264c-0.816-0.844-1.225-1.975-1.225-3.395c0-1.393,0.381-2.553,1.143-3.479
			c0.797-0.988,1.875-1.482,3.229-1.482c1.332,0,2.341,0.494,3.025,1.482C117.359,23.157,117.632,24.126,117.632,25.28z
			 M115.674,24.747c0.014-0.609-0.12-1.133-0.398-1.578c-0.355-0.57-0.901-0.855-1.637-0.855c-0.671,0-1.217,0.277-1.634,0.836
			c-0.342,0.443-0.545,0.977-0.607,1.598H115.674L115.674,24.747z"/>
	</g>
	<g>
		<g>
			<path fill="#FFFFFF" d="M47.233,9.638c0,1.134-0.34,1.987-1.018,2.56c-0.629,0.529-1.522,0.794-2.68,0.794
				c-0.574,0-1.065-0.025-1.477-0.075V6.723c0.537-0.086,1.114-0.13,1.738-0.13c1.103,0,1.934,0.239,2.494,0.719
				C46.918,7.854,47.233,8.629,47.233,9.638z M46.169,9.667c0-0.735-0.194-1.298-0.583-1.691c-0.389-0.392-0.957-0.589-1.705-0.589
				c-0.318,0-0.588,0.021-0.812,0.066v4.708c0.124,0.02,0.351,0.028,0.682,0.028c0.772,0,1.368-0.215,1.788-0.645
				C45.958,11.115,46.169,10.489,46.169,9.667z"/>
			<path fill="#FFFFFF" d="M52.875,10.628c0,0.698-0.199,1.27-0.598,1.719c-0.418,0.461-0.972,0.691-1.663,0.691
				c-0.666,0-1.197-0.221-1.592-0.664c-0.395-0.442-0.593-1-0.593-1.671c0-0.704,0.203-1.28,0.611-1.728
				c0.409-0.448,0.958-0.672,1.649-0.672c0.667,0,1.202,0.221,1.607,0.663C52.682,9.396,52.875,9.95,52.875,10.628z M51.829,10.661
				c0-0.419-0.09-0.777-0.271-1.077c-0.212-0.362-0.514-0.543-0.905-0.543c-0.405,0-0.714,0.181-0.925,0.543
				c-0.181,0.3-0.271,0.665-0.271,1.096c0,0.419,0.091,0.778,0.271,1.078c0.219,0.362,0.523,0.543,0.916,0.543
				c0.386,0,0.688-0.184,0.905-0.552C51.735,11.442,51.829,11.08,51.829,10.661z"/>
			<path fill="#FFFFFF" d="M60.44,8.396l-1.42,4.54h-0.924l-0.588-1.972c-0.149-0.492-0.271-0.98-0.365-1.466h-0.019
				c-0.087,0.499-0.208,0.987-0.365,1.466l-0.625,1.972h-0.935l-1.335-4.54h1.038l0.513,2.158c0.124,0.51,0.226,0.997,0.309,1.457
				h0.018c0.075-0.379,0.2-0.863,0.375-1.448l0.644-2.167h0.822l0.618,2.121c0.149,0.517,0.27,1.015,0.364,1.495h0.028
				c0.068-0.467,0.171-0.965,0.308-1.495l0.55-2.121L60.44,8.396L60.44,8.396z"/>
			<path fill="#FFFFFF" d="M65.672,12.936h-1.009v-2.6c0-0.801-0.304-1.202-0.915-1.202c-0.3,0-0.542,0.11-0.729,0.331
				c-0.186,0.22-0.28,0.48-0.28,0.777v2.693H61.73V9.693c0-0.399-0.013-0.831-0.037-1.299h0.887l0.047,0.71h0.028
				c0.117-0.221,0.293-0.402,0.523-0.548c0.273-0.169,0.58-0.255,0.915-0.255c0.424,0,0.776,0.137,1.056,0.411
				c0.35,0.336,0.523,0.838,0.523,1.504V12.936z"/>
			<path fill="#FFFFFF" d="M68.455,12.936h-1.008V6.313h1.008V12.936z"/>
			<path fill="#FFFFFF" d="M74.396,10.628c0,0.698-0.199,1.27-0.599,1.719c-0.417,0.461-0.972,0.691-1.662,0.691
				c-0.668,0-1.198-0.221-1.593-0.664c-0.396-0.442-0.593-1-0.593-1.671c0-0.704,0.203-1.28,0.611-1.728
				c0.409-0.448,0.957-0.672,1.647-0.672c0.668,0,1.202,0.221,1.609,0.663C74.203,9.396,74.396,9.95,74.396,10.628z M73.349,10.661
				c0-0.419-0.09-0.777-0.271-1.077c-0.211-0.362-0.514-0.543-0.904-0.543c-0.407,0-0.714,0.181-0.926,0.543
				c-0.181,0.3-0.27,0.665-0.27,1.096c0,0.419,0.091,0.778,0.27,1.078c0.219,0.362,0.523,0.543,0.916,0.543
				c0.386,0,0.687-0.184,0.904-0.552C73.257,11.442,73.349,11.08,73.349,10.661z"/>
			<path fill="#FFFFFF" d="M79.281,12.936h-0.907l-0.075-0.523h-0.027c-0.31,0.417-0.752,0.626-1.326,0.626
				c-0.429,0-0.775-0.138-1.036-0.412c-0.236-0.248-0.355-0.557-0.355-0.924c0-0.554,0.231-0.977,0.697-1.27
				c0.464-0.292,1.116-0.436,1.957-0.429V9.918c0-0.598-0.313-0.896-0.943-0.896c-0.447,0-0.843,0.113-1.183,0.336l-0.205-0.662
				c0.421-0.261,0.942-0.392,1.557-0.392c1.188,0,1.781,0.626,1.781,1.878v1.671C79.215,12.307,79.237,12.668,79.281,12.936z
				 M78.233,11.375v-0.7c-1.113-0.019-1.67,0.286-1.67,0.915c0,0.237,0.063,0.414,0.193,0.532S77.052,12.3,77.25,12.3
				c0.222,0,0.429-0.07,0.616-0.209c0.19-0.141,0.307-0.319,0.35-0.538C78.228,11.503,78.233,11.444,78.233,11.375z"/>
			<path fill="#FFFFFF" d="M85.016,12.936H84.12l-0.047-0.729h-0.028c-0.286,0.555-0.773,0.832-1.458,0.832
				c-0.547,0-1.002-0.215-1.363-0.644c-0.361-0.43-0.542-0.987-0.542-1.672c0-0.734,0.196-1.33,0.589-1.784
				c0.38-0.424,0.847-0.636,1.401-0.636c0.609,0,1.036,0.205,1.279,0.616h0.019V6.313h1.01v5.399
				C84.979,12.155,84.991,12.562,85.016,12.936z M83.97,11.021v-0.756c0-0.131-0.01-0.237-0.028-0.318
				c-0.057-0.243-0.179-0.447-0.365-0.612c-0.188-0.165-0.413-0.248-0.675-0.248c-0.376,0-0.672,0.149-0.888,0.449
				c-0.215,0.299-0.323,0.682-0.323,1.149c0,0.449,0.104,0.812,0.31,1.093c0.219,0.299,0.514,0.448,0.883,0.448
				c0.331,0,0.596-0.124,0.797-0.374C83.874,11.622,83.97,11.345,83.97,11.021z"/>
			<path fill="#FFFFFF" d="M93.646,10.628c0,0.698-0.199,1.27-0.599,1.719c-0.417,0.461-0.97,0.691-1.662,0.691
				c-0.666,0-1.196-0.221-1.593-0.664c-0.396-0.442-0.593-1-0.593-1.671c0-0.704,0.203-1.28,0.611-1.728
				c0.408-0.448,0.957-0.672,1.649-0.672c0.666,0,1.202,0.221,1.606,0.663C93.452,9.396,93.646,9.95,93.646,10.628z M92.601,10.661
				c0-0.419-0.09-0.777-0.271-1.077c-0.213-0.362-0.514-0.543-0.907-0.543c-0.404,0-0.712,0.181-0.925,0.543
				c-0.181,0.3-0.271,0.665-0.271,1.096c0,0.419,0.091,0.778,0.271,1.078c0.219,0.362,0.522,0.543,0.916,0.543
				c0.386,0,0.688-0.184,0.906-0.552C92.507,11.442,92.601,11.08,92.601,10.661z"/>
			<path fill="#FFFFFF" d="M99.072,12.936h-1.008v-2.6c0-0.801-0.305-1.202-0.916-1.202c-0.299,0-0.541,0.11-0.728,0.331
				c-0.187,0.22-0.28,0.48-0.28,0.777v2.693H95.13V9.693c0-0.399-0.011-0.831-0.035-1.299h0.886l0.047,0.71h0.028
				c0.118-0.221,0.293-0.402,0.522-0.548c0.274-0.169,0.579-0.255,0.916-0.255c0.424,0,0.775,0.137,1.056,0.411
				c0.35,0.336,0.522,0.838,0.522,1.504V12.936z"/>
			<path fill="#FFFFFF" d="M105.864,9.152h-1.111v2.205c0,0.561,0.197,0.841,0.588,0.841c0.182,0,0.331-0.016,0.449-0.047
				l0.026,0.766c-0.199,0.075-0.46,0.113-0.784,0.113c-0.397,0-0.708-0.122-0.933-0.365c-0.225-0.242-0.337-0.65-0.337-1.224V9.152
				h-0.664V8.396h0.664V7.564l0.989-0.298v1.129h1.112V9.152L105.864,9.152z"/>
			<path fill="#FFFFFF" d="M111.207,12.936h-1.01v-2.581c0-0.813-0.305-1.221-0.914-1.221c-0.469,0-0.788,0.236-0.963,0.708
				c-0.03,0.1-0.047,0.221-0.047,0.363v2.73h-1.009V6.313h1.009v2.735h0.019c0.317-0.498,0.773-0.746,1.363-0.746
				c0.418,0,0.764,0.137,1.038,0.411c0.343,0.342,0.514,0.851,0.514,1.522V12.936z"/>
			<path fill="#FFFFFF" d="M116.718,10.451c0,0.181-0.013,0.333-0.037,0.458h-3.026c0.013,0.448,0.158,0.791,0.438,1.027
				c0.255,0.212,0.585,0.318,0.99,0.318c0.448,0,0.856-0.072,1.223-0.215l0.158,0.701c-0.43,0.187-0.937,0.28-1.523,0.28
				c-0.702,0-1.256-0.207-1.657-0.621c-0.402-0.414-0.602-0.969-0.602-1.667c0-0.685,0.187-1.255,0.561-1.709
				c0.392-0.485,0.92-0.728,1.587-0.728c0.653,0,1.149,0.243,1.484,0.728C116.584,9.408,116.718,9.885,116.718,10.451z
				 M115.755,10.19c0.008-0.299-0.059-0.558-0.195-0.775c-0.175-0.28-0.442-0.42-0.804-0.42c-0.329,0-0.598,0.137-0.803,0.411
				c-0.167,0.219-0.267,0.479-0.299,0.785H115.755z"/>
		</g>
	</g>
</g>
</svg>
