<?xml version="1.0" encoding="utf-8"?>
<!-- Generator: Adobe Illustrator 16.0.0, SVG Export Plug-In . SVG Version: 6.00 Build 0)  -->
<!DOCTYPE svg PUBLIC "-//W3C//DTD SVG 1.1//EN" "http://www.w3.org/Graphics/SVG/1.1/DTD/svg11.dtd">
<svg version="1.1" id="Layer_1" xmlns="http://www.w3.org/2000/svg" xmlns:xlink="http://www.w3.org/1999/xlink" x="0px" y="0px"
	 width="130px" height="42.527px" viewBox="0 0 130 42.527" enable-background="new 0 0 130 42.527" xml:space="preserve">
<g>
	<path d="M130,36.779c0,3.174-2.572,5.746-5.745,5.746H5.747C2.574,42.525,0,39.953,0,36.779V5.747C0,2.574,2.573,0,5.747,0h118.508
		C127.428,0,130,2.573,130,5.747V36.779z"/>
	<path fill="#A6A6A6" d="M124.255,1.001c2.615,0,4.745,2.129,4.745,4.747v31.031c0,2.617-2.13,4.748-4.745,4.748H5.747
		C3.13,41.527,1,39.396,1,36.779V5.748c0-2.617,2.129-4.747,4.747-4.747H124.255 M124.255,0.001H5.747C2.574,0.001,0,2.574,0,5.748
		v31.031c0,3.174,2.572,5.748,5.747,5.748h118.508c3.173,0,5.745-2.574,5.745-5.748V5.748C130,2.574,127.428,0.001,124.255,0.001
		L124.255,0.001z"/>
</g>
<g id="PLAY_1_">
	<g>
		<defs>
			<path id="SVGID_1_" d="M28.173,18.719l-5.862-3.384c0,0-10.679-6.167-11.307-6.528c-0.628-0.362-1.253-0.144-1.253,0.614
				c0,1.263,0,13.167,0,13.167s0,12.863,0,13.434c0,0.566,0.446,0.811,0.993,0.498c0.545-0.316,11.566-6.682,11.566-6.682
				l5.862-3.383c0,0,4.973-2.871,5.634-3.254c0.661-0.381,0.598-0.906,0.04-1.205C33.289,21.694,28.173,18.719,28.173,18.719z"/>
		</defs>
		<clipPath id="SVGID_2_">
			<use xlink:href="#SVGID_1_"  overflow="visible"/>
		</clipPath>
		
			<linearGradient id="SVGID_3_" gradientUnits="userSpaceOnUse" x1="25.3718" y1="857.7573" x2="25.3718" y2="828.9585" gradientTransform="matrix(1 0 0 -1 -8.3599 865.9443)">
			<stop  offset="0" style="stop-color:#257CB0"/>
			<stop  offset="0.2863" style="stop-color:#4A93B5"/>
			<stop  offset="0.767" style="stop-color:#78BCBB"/>
			<stop  offset="1" style="stop-color:#89CFBD"/>
		</linearGradient>
		<polygon clip-path="url(#SVGID_2_)" fill="url(#SVGID_3_)" points="9.751,8.188 9.751,22.587 9.751,36.986 24.272,22.587 		"/>
	</g>
	<g>
		<defs>
			<path id="SVGID_4_" d="M28.173,18.719l-5.862-3.384c0,0-10.679-6.167-11.307-6.528c-0.628-0.362-1.253-0.144-1.253,0.614
				c0,1.263,0,13.167,0,13.167s0,12.863,0,13.434c0,0.566,0.446,0.811,0.993,0.498c0.545-0.316,11.566-6.682,11.566-6.682
				l5.862-3.383c0,0,4.973-2.871,5.634-3.254c0.661-0.381,0.598-0.906,0.04-1.205C33.289,21.694,28.173,18.719,28.173,18.719z"/>
		</defs>
		<clipPath id="SVGID_5_">
			<use xlink:href="#SVGID_4_"  overflow="visible"/>
		</clipPath>
		
			<linearGradient id="SVGID_6_" gradientUnits="userSpaceOnUse" x1="18.1111" y1="850.6089" x2="36.533" y2="850.6089" gradientTransform="matrix(1 0 0 -1 -8.3599 865.9443)">
			<stop  offset="0" style="stop-color:#52C1AD"/>
			<stop  offset="1" style="stop-color:#DEE89A"/>
		</linearGradient>
		<polygon clip-path="url(#SVGID_5_)" fill="url(#SVGID_6_)" points="28.173,18.719 22.311,15.335 9.751,8.083 9.751,8.188 
			24.272,22.587 		"/>
	</g>
	<g>
		<defs>
			<path id="SVGID_7_" d="M28.173,18.719l-5.862-3.384c0,0-10.679-6.167-11.307-6.528c-0.628-0.362-1.253-0.144-1.253,0.614
				c0,1.263,0,13.167,0,13.167s0,12.863,0,13.434c0,0.566,0.446,0.811,0.993,0.498c0.545-0.316,11.566-6.682,11.566-6.682
				l5.862-3.383c0,0,4.973-2.871,5.634-3.254c0.661-0.381,0.598-0.906,0.04-1.205C33.289,21.694,28.173,18.719,28.173,18.719z"/>
		</defs>
		<clipPath id="SVGID_8_">
			<use xlink:href="#SVGID_7_"  overflow="visible"/>
		</clipPath>
		
			<linearGradient id="SVGID_9_" gradientUnits="userSpaceOnUse" x1="27.3225" y1="843.3569" x2="27.3225" y2="828.855" gradientTransform="matrix(1 0 0 -1 -8.3599 865.9443)">
			<stop  offset="0" style="stop-color:#EC413D"/>
			<stop  offset="0.1668" style="stop-color:#DA4452"/>
			<stop  offset="0.5748" style="stop-color:#B0487A"/>
			<stop  offset="0.8619" style="stop-color:#954A92"/>
			<stop  offset="1" style="stop-color:#8A4A9D"/>
		</linearGradient>
		<polygon clip-path="url(#SVGID_8_)" fill="url(#SVGID_9_)" points="9.751,36.986 9.751,37.089 22.311,29.837 28.173,26.455 
			24.272,22.587 		"/>
	</g>
	<g>
		<defs>
			<path id="SVGID_10_" d="M28.173,18.719l-5.862-3.384c0,0-10.679-6.167-11.307-6.528c-0.628-0.362-1.253-0.144-1.253,0.614
				c0,1.263,0,13.167,0,13.167s0,12.863,0,13.434c0,0.566,0.446,0.811,0.993,0.498c0.545-0.316,11.566-6.682,11.566-6.682
				l5.862-3.383c0,0,4.973-2.871,5.634-3.254c0.661-0.381,0.598-0.906,0.04-1.205C33.289,21.694,28.173,18.719,28.173,18.719z"/>
		</defs>
		<clipPath id="SVGID_11_">
			<use xlink:href="#SVGID_10_"  overflow="visible"/>
		</clipPath>
		
			<linearGradient id="SVGID_12_" gradientUnits="userSpaceOnUse" x1="37.9324" y1="847.2261" x2="37.9324" y2="839.4897" gradientTransform="matrix(1 0 0 -1 -8.3599 865.9443)">
			<stop  offset="0" style="stop-color:#F58879"/>
			<stop  offset="0.1194" style="stop-color:#F69079"/>
			<stop  offset="0.7128" style="stop-color:#FCB877"/>
			<stop  offset="1" style="stop-color:#FEC874"/>
		</linearGradient>
		<polygon clip-path="url(#SVGID_11_)" fill="url(#SVGID_12_)" points="28.173,18.719 24.272,22.587 28.173,26.455 34.872,22.587 		
			"/>
	</g>
</g>
<g>
	<path fill="#F9F9F9" d="M101.173,28.216c-0.546,0-1.044-0.102-1.494-0.303c-0.451-0.201-0.829-0.51-1.135-0.928h-0.093
		c0.062,0.488,0.093,0.953,0.093,1.391v3.445h-1.27V19.688h1.031l0.176,1.146h0.062c0.325-0.458,0.706-0.79,1.139-0.993
		c0.433-0.204,0.93-0.306,1.49-0.306c1.109,0,1.968,0.38,2.57,1.139c0.604,0.76,0.905,1.824,0.905,3.195
		c0,1.375-0.307,2.443-0.92,3.205C103.115,27.835,102.263,28.216,101.173,28.216z M100.989,20.613c-0.855,0-1.475,0.237-1.855,0.71
		c-0.383,0.474-0.579,1.227-0.589,2.262v0.283c0,1.176,0.195,2.018,0.589,2.525c0.392,0.506,1.021,0.76,1.887,0.76
		c0.724,0,1.291-0.293,1.701-0.879c0.409-0.586,0.614-1.395,0.614-2.422c0-1.045-0.205-1.846-0.614-2.404
		C102.311,20.892,101.732,20.613,100.989,20.613z"/>
	<path fill="#F9F9F9" d="M107.586,28.062h-1.269v-11.89h1.269V28.062z"/>
	<path fill="#F9F9F9" d="M114.879,28.062l-0.252-1.191h-0.062c-0.418,0.525-0.834,0.881-1.249,1.066s-0.934,0.277-1.555,0.277
		c-0.831,0-1.481-0.213-1.953-0.641c-0.471-0.428-0.707-1.037-0.707-1.826c0-1.691,1.354-2.578,4.058-2.66l1.422-0.045v-0.52
		c0-0.658-0.142-1.144-0.425-1.457c-0.282-0.314-0.733-0.47-1.354-0.47c-0.698,0-1.488,0.214-2.369,0.642l-0.391-0.97
		c0.413-0.225,0.864-0.4,1.356-0.527c0.491-0.127,0.984-0.191,1.479-0.191c0.997,0,1.737,0.222,2.22,0.665
		c0.481,0.444,0.722,1.154,0.722,2.132v5.715H114.879z M112.014,27.169c0.789,0,1.409-0.217,1.859-0.648
		c0.45-0.434,0.678-1.039,0.678-1.818v-0.758L113.281,24c-1.008,0.035-1.734,0.191-2.182,0.469
		c-0.445,0.279-0.668,0.711-0.668,1.297c0,0.459,0.139,0.807,0.416,1.047C111.126,27.05,111.514,27.169,112.014,27.169z"/>
	<path fill="#F9F9F9" d="M116.555,19.688h1.359l1.834,4.776c0.402,1.092,0.652,1.877,0.749,2.361h0.062
		c0.065-0.26,0.205-0.705,0.416-1.334s0.903-2.562,2.074-5.803h1.359l-3.599,9.538c-0.356,0.941-0.773,1.609-1.25,2.006
		c-0.477,0.395-1.062,0.592-1.753,0.592c-0.388,0-0.771-0.043-1.147-0.129v-1.018c0.28,0.062,0.595,0.092,0.94,0.092
		c0.871,0,1.492-0.488,1.865-1.469l0.466-1.189L116.555,19.688z"/>
</g>
<g>
	<path fill="#F9F9F9" d="M77.675,20.466c0.402,0.333,1.243,1.033,1.243,2.366c0,1.295-0.735,1.91-1.472,2.486
		c-0.229,0.229-0.491,0.475-0.491,0.859s0.264,0.596,0.456,0.754l0.632,0.488c0.771,0.648,1.471,1.244,1.471,2.453
		c0,1.646-1.594,3.311-4.606,3.311c-2.539,0-3.766-1.207-3.766-2.506c0-0.631,0.313-1.521,1.35-2.137
		c1.085-0.666,2.558-0.752,3.346-0.807c-0.246-0.314-0.526-0.648-0.526-1.189c0-0.297,0.088-0.473,0.176-0.684
		c-0.192,0.018-0.386,0.035-0.562,0.035c-1.855,0-2.907-1.385-2.907-2.75c0-0.807,0.368-1.701,1.121-2.348
		c0.999-0.822,2.188-0.964,3.137-0.964h3.607l-1.121,0.631L77.675,20.466L77.675,20.466z M76.432,28.244
		c-0.141-0.018-0.229-0.018-0.402-0.018c-0.158,0-1.104,0.035-1.84,0.281c-0.386,0.139-1.507,0.561-1.507,1.805
		c0,1.242,1.209,2.137,3.084,2.137c1.681,0,2.574-0.807,2.574-1.893C78.341,29.662,77.763,29.191,76.432,28.244z M76.939,24.916
		c0.402-0.402,0.438-0.963,0.438-1.279c0-1.26-0.754-3.222-2.206-3.222c-0.456,0-0.946,0.228-1.228,0.578
		c-0.297,0.368-0.386,0.84-0.386,1.296c0,1.172,0.685,3.117,2.189,3.117C76.187,25.406,76.657,25.197,76.939,24.916z"/>
	<path fill="#F9F9F9" d="M66.647,27.964c-2.78,0-4.267-2.17-4.267-4.129c0-2.291,1.871-4.249,4.53-4.249
		c2.569,0,4.179,2.012,4.179,4.127C71.09,25.777,69.499,27.964,66.647,27.964z M68.833,26.548c0.421-0.561,0.524-1.26,0.524-1.941
		c0-1.539-0.733-4.478-2.902-4.478c-0.577,0-1.154,0.229-1.574,0.597c-0.683,0.61-0.805,1.381-0.805,2.133
		c0,1.729,0.856,4.58,2.974,4.58C67.732,27.439,68.432,27.107,68.833,26.548z"/>
	<path fill="#F9F9F9" d="M57.168,27.964c-2.781,0-4.269-2.17-4.269-4.129c0-2.291,1.872-4.249,4.53-4.249
		c2.571,0,4.18,2.012,4.18,4.127C61.61,25.777,60.019,27.964,57.168,27.964z M59.354,26.548c0.42-0.561,0.525-1.26,0.525-1.941
		c0-1.539-0.735-4.478-2.904-4.478c-0.577,0-1.154,0.229-1.574,0.597c-0.682,0.61-0.804,1.381-0.804,2.133
		c0,1.729,0.856,4.58,2.974,4.58C58.253,27.439,58.952,27.107,59.354,26.548z"/>
	<path fill="#F9F9F9" d="M51.565,27.689l-2.515,0.582c-1.021,0.156-1.936,0.297-2.901,0.297c-4.854,0-6.698-3.568-6.698-6.365
		c0-3.411,2.619-6.575,7.104-6.575c0.95,0,1.863,0.141,2.689,0.369c1.318,0.369,1.934,0.826,2.32,1.09l-1.46,1.39l-0.615,0.14
		l0.439-0.703c-0.597-0.58-1.688-1.652-3.762-1.652c-2.778,0-4.871,2.111-4.871,5.188c0,3.304,2.392,6.417,6.224,6.417
		c1.126,0,1.706-0.23,2.233-0.439v-2.83l-2.654,0.141l1.406-0.758h3.728l-0.457,0.439c-0.124,0.105-0.141,0.143-0.176,0.281
		c-0.019,0.158-0.035,0.668-0.035,0.844L51.565,27.689L51.565,27.689z"/>
	<path fill="#F9F9F9" d="M83.232,27.183c-0.58-0.053-0.702-0.158-0.702-0.846v-0.191v-9.759c0.004-0.037,0.006-0.076,0.01-0.113
		c0.071-0.615,0.246-0.721,0.792-1.037h-2.515l-1.319,0.633h1.345v0.008l-0.001-0.007v10.274v0.582c0,0.35-0.069,0.402-0.475,0.93
		h3.112l0.65-0.385C83.83,27.236,83.531,27.218,83.232,27.183z"/>
	<path fill="#F9F9F9" d="M90.387,27.345c-0.191,0.105-0.383,0.229-0.574,0.314c-0.577,0.262-1.171,0.332-1.695,0.332
		c-0.558,0-1.432-0.037-2.322-0.682c-1.238-0.873-1.78-2.375-1.78-3.686c0-2.707,2.2-4.034,3.999-4.034
		c0.629,0,1.274,0.157,1.8,0.489c0.872,0.575,1.099,1.326,1.221,1.729l-4.103,1.658l-1.345,0.105
		c0.436,2.217,1.938,3.508,3.597,3.508c0.891,0,1.537-0.312,2.13-0.607L90.387,27.345z M88.745,22.142
		c0.331-0.123,0.507-0.228,0.507-0.472c0-0.697-0.785-1.502-1.729-1.502c-0.699,0-2.008,0.542-2.008,2.427
		c0,0.297,0.035,0.611,0.053,0.928L88.745,22.142z"/>
	<g>
		<path fill="#F9F9F9" d="M92.072,19.712v1.152h-0.14v-1.152h-0.381v-0.12h0.901v0.12H92.072z"/>
		<path fill="#F9F9F9" d="M93.644,20.864v-1.163h-0.007l-0.354,1.163h-0.108l-0.358-1.163h-0.004v1.163h-0.128v-1.271h0.219
			l0.323,1.028h0.005l0.318-1.028h0.222v1.271H93.644z"/>
	</g>
</g>
<g>
	<path fill="#F9F9FA" d="M42.942,12.204h-0.874c0-0.12-0.083-0.46-0.249-1.021h-1.262c-0.171,0.551-0.256,0.892-0.256,1.021h-0.822
		c0-0.071,0.212-0.654,0.638-1.748c0.425-1.094,0.638-1.696,0.638-1.808h1.032c0,0.104,0.191,0.697,0.576,1.782
		C42.75,11.516,42.942,12.106,42.942,12.204z M41.681,10.662c-0.312-0.938-0.467-1.447-0.467-1.523h-0.043
		c0,0.07-0.161,0.578-0.483,1.523H41.681z"/>
	<path fill="#F9F9FA" d="M46.463,12.204h-0.674c0-0.075-0.25-0.469-0.751-1.182c-0.524-0.752-0.823-1.267-0.896-1.543h-0.043
		c0.045,0.398,0.068,0.759,0.068,1.082c0,0.448,0.013,0.998,0.038,1.644h-0.672c0.026-0.563,0.04-1.184,0.04-1.859
		c0-0.664-0.014-1.229-0.04-1.695h0.811c0,0.097,0.225,0.481,0.674,1.154c0.479,0.716,0.753,1.2,0.825,1.455h0.041
		c-0.044-0.405-0.066-0.77-0.066-1.092c0-0.493-0.013-0.999-0.038-1.518h0.684c-0.025,0.452-0.038,1.017-0.038,1.695
		C46.425,11.029,46.438,11.649,46.463,12.204z"/>
	<path fill="#F9F9FA" d="M50.42,10.305c0,0.517-0.166,0.968-0.497,1.354c-0.332,0.386-0.795,0.579-1.394,0.579
		c-0.27,0-0.641-0.011-1.113-0.033c0.022-0.55,0.036-1.169,0.036-1.858c0-0.663-0.013-1.229-0.036-1.696h0.478
		c0.078,0,0.195-0.002,0.351-0.008c0.154-0.007,0.256-0.009,0.303-0.009c0.657,0,1.133,0.164,1.429,0.491S50.42,9.846,50.42,10.305z
		 M49.675,10.422c0-0.35-0.103-0.644-0.306-0.884c-0.204-0.239-0.516-0.358-0.935-0.358c-0.079,0-0.186,0.008-0.322,0.024
		c0.019,0.364,0.027,0.744,0.027,1.141c0,0.436,0.009,0.867,0.027,1.295c0.118,0.023,0.235,0.035,0.354,0.035
		c0.393,0,0.683-0.122,0.87-0.364C49.581,11.067,49.675,10.771,49.675,10.422z"/>
	<path fill="#F9F9FA" d="M54.069,12.204H53.26c-0.211-0.645-0.373-1.042-0.486-1.193c-0.112-0.15-0.295-0.227-0.546-0.227
		c-0.104,0-0.207,0.001-0.303,0.003c0,0.468,0.008,0.94,0.024,1.417h-0.76c0.023-0.55,0.036-1.169,0.036-1.859
		c0-0.662-0.012-1.228-0.036-1.695h0.473c0.055,0,0.169-0.002,0.343-0.008c0.174-0.007,0.334-0.009,0.481-0.009
		c0.835,0,1.253,0.286,1.253,0.857c0,0.453-0.238,0.769-0.715,0.947v0.041c0.185,0.051,0.346,0.193,0.483,0.43
		C53.647,11.145,53.834,11.576,54.069,12.204z M53.045,9.692c0-0.362-0.233-0.543-0.699-0.543c-0.171,0-0.322,0.013-0.453,0.038
		c0.021,0.281,0.03,0.649,0.03,1.103c0.1,0.004,0.185,0.005,0.254,0.005C52.756,10.296,53.045,10.096,53.045,9.692z"/>
	<path fill="#F9F9FA" d="M57.983,10.361c0,0.559-0.171,1.021-0.513,1.39c-0.342,0.367-0.766,0.551-1.27,0.551
		c-0.48,0-0.884-0.169-1.207-0.506c-0.324-0.338-0.486-0.767-0.486-1.288c0-0.559,0.171-1.021,0.513-1.39s0.766-0.551,1.271-0.551
		c0.479,0,0.883,0.168,1.207,0.505C57.821,9.409,57.983,9.839,57.983,10.361z M57.229,10.441c0-0.381-0.098-0.689-0.292-0.926
		S56.502,9.16,56.216,9.16c-0.266,0-0.491,0.119-0.677,0.358c-0.187,0.237-0.278,0.54-0.278,0.903c0,0.378,0.098,0.688,0.293,0.924
		c0.195,0.237,0.436,0.356,0.72,0.356c0.267,0,0.491-0.12,0.678-0.359C57.137,11.104,57.229,10.803,57.229,10.441z"/>
	<path fill="#F9F9FA" d="M59.526,12.204h-0.771c0.022-0.563,0.036-1.184,0.036-1.859c0-0.665-0.013-1.229-0.036-1.695h0.771
		c-0.022,0.459-0.034,1.023-0.034,1.695C59.491,11.031,59.503,11.651,59.526,12.204z"/>
	<path fill="#F9F9FA" d="M63.484,10.305c0,0.517-0.166,0.968-0.497,1.354c-0.332,0.386-0.796,0.579-1.393,0.579
		c-0.27,0-0.641-0.011-1.114-0.033c0.024-0.55,0.036-1.169,0.036-1.858c0-0.663-0.012-1.229-0.036-1.696h0.479
		c0.078,0,0.194-0.002,0.35-0.008c0.154-0.006,0.255-0.009,0.303-0.009c0.657,0,1.135,0.164,1.431,0.491
		C63.336,9.452,63.484,9.846,63.484,10.305z M62.739,10.422c0-0.35-0.102-0.644-0.306-0.884c-0.204-0.239-0.515-0.358-0.934-0.358
		c-0.078,0-0.187,0.008-0.322,0.024c0.018,0.364,0.027,0.744,0.027,1.141c0,0.436,0.009,0.867,0.026,1.295
		c0.118,0.023,0.237,0.035,0.355,0.035c0.391,0,0.681-0.122,0.87-0.364C62.645,11.067,62.739,10.771,62.739,10.422z"/>
	<path fill="#F9F9FA" d="M68.734,12.204H67.86c0-0.12-0.083-0.46-0.249-1.021H66.35c-0.171,0.551-0.256,0.892-0.256,1.021h-0.822
		c0-0.071,0.212-0.654,0.638-1.748c0.425-1.094,0.638-1.696,0.638-1.808h1.032c0,0.104,0.191,0.697,0.577,1.782
		C68.541,11.515,68.734,12.106,68.734,12.204z M67.473,10.662c-0.312-0.938-0.467-1.447-0.467-1.523h-0.044
		c0,0.07-0.161,0.578-0.483,1.523H67.473z"/>
	<path fill="#F9F9FA" d="M71.919,9.58c0,0.436-0.162,0.756-0.485,0.964c-0.322,0.208-0.719,0.312-1.188,0.312
		c-0.086,0-0.146-0.002-0.184-0.006c0,0.342,0.011,0.793,0.029,1.354h-0.767c0.022-0.526,0.034-1.146,0.034-1.859
		c0-0.654-0.012-1.221-0.034-1.695H69.8c0.067,0,0.197-0.002,0.388-0.008c0.191-0.006,0.356-0.009,0.497-0.009
		c0.347,0,0.639,0.078,0.877,0.235S71.919,9.262,71.919,9.58z M71.214,9.731c0-0.391-0.258-0.584-0.775-0.584
		c-0.129,0-0.266,0.014-0.409,0.041c0.021,0.344,0.03,0.732,0.03,1.168c0.045,0.004,0.099,0.005,0.158,0.005
		C70.882,10.361,71.214,10.151,71.214,9.731z"/>
	<path fill="#F9F9FA" d="M75.193,9.58c0,0.436-0.162,0.756-0.483,0.964c-0.323,0.208-0.721,0.312-1.189,0.312
		c-0.086,0-0.146-0.002-0.183-0.006c0,0.342,0.01,0.793,0.03,1.354H72.6c0.023-0.526,0.035-1.146,0.035-1.859
		c0-0.654-0.012-1.221-0.035-1.695h0.476c0.066,0,0.196-0.002,0.388-0.008c0.19-0.006,0.356-0.009,0.497-0.009
		c0.346,0,0.638,0.078,0.877,0.235C75.073,9.025,75.193,9.262,75.193,9.58z M74.489,9.731c0-0.391-0.259-0.584-0.774-0.584
		c-0.13,0-0.268,0.014-0.41,0.041c0.021,0.344,0.03,0.732,0.03,1.168c0.046,0.004,0.099,0.005,0.158,0.005
		C74.157,10.361,74.489,10.151,74.489,9.731z"/>
	<path fill="#F9F9FA" d="M80.547,10.361c0,0.559-0.171,1.021-0.514,1.39c-0.343,0.367-0.766,0.551-1.27,0.551
		c-0.48,0-0.883-0.169-1.207-0.506c-0.324-0.338-0.486-0.767-0.486-1.288c0-0.559,0.171-1.021,0.515-1.39
		c0.342-0.368,0.766-0.551,1.27-0.551c0.48,0,0.883,0.168,1.207,0.505C80.385,9.409,80.547,9.839,80.547,10.361z M79.794,10.441
		c0-0.381-0.099-0.689-0.292-0.926C79.307,9.279,79.066,9.16,78.78,9.16c-0.266,0-0.491,0.119-0.677,0.358
		c-0.186,0.237-0.278,0.54-0.278,0.903c0,0.378,0.099,0.688,0.294,0.924c0.195,0.237,0.436,0.356,0.72,0.356
		c0.266,0,0.49-0.12,0.677-0.359C79.7,11.104,79.794,10.803,79.794,10.441z"/>
	<path fill="#F9F9FA" d="M84.247,12.204h-0.675c0-0.075-0.25-0.469-0.751-1.182C82.299,10.271,82,9.756,81.926,9.479h-0.043
		c0.045,0.398,0.067,0.759,0.067,1.082c0,0.448,0.014,0.998,0.038,1.644h-0.672c0.027-0.563,0.041-1.184,0.041-1.859
		c0-0.664-0.014-1.229-0.041-1.695h0.812c0,0.097,0.226,0.481,0.675,1.154c0.479,0.716,0.754,1.2,0.824,1.455h0.041
		c-0.045-0.405-0.065-0.77-0.065-1.092c0-0.493-0.013-0.999-0.038-1.518h0.683c-0.024,0.452-0.037,1.017-0.037,1.695
		C84.21,11.029,84.223,11.649,84.247,12.204z"/>
</g>
</svg>
