<?xml version="1.0" encoding="utf-8"?>
<!-- Generator: Adobe Illustrator 16.0.0, SVG Export Plug-In . SVG Version: 6.00 Build 0)  -->
<!DOCTYPE svg PUBLIC "-//W3C//DTD SVG 1.1//EN" "http://www.w3.org/Graphics/SVG/1.1/DTD/svg11.dtd">
<svg version="1.1" id="Layer_1" xmlns="http://www.w3.org/2000/svg" xmlns:xlink="http://www.w3.org/1999/xlink" x="0px" y="0px"
	 width="27.093px" height="18.099px" viewBox="0 0 27.093 18.099" enable-background="new 0 0 27.093 18.099" xml:space="preserve">
<g>
	<path fill="#231F20" d="M0,18.098V0h27.093v18.043v0.056H0z M27.037,18.042v-0.058V18.042z M0.113,17.985H26.98l0-17.874H0.113
		V17.985z"/>
	<rect x="0.057" y="0.055" fill="#F42A41" width="26.98" height="8.992"/>
	<rect x="0.057" y="9.047" fill="#FFFFFF" width="26.98" height="8.994"/>
	<path fill="#FFFFFF" d="M4.112,4.551c0-1.425,0.841-2.648,2.051-3.214C5.924,1.284,5.678,1.252,5.424,1.252
		c-1.822,0-3.3,1.477-3.3,3.299c0,1.823,1.478,3.3,3.3,3.3c0.254,0,0.5-0.031,0.739-0.085C4.953,7.201,4.112,5.975,4.112,4.551z"/>
	<polygon fill="#FFFFFF" points="7.705,1.883 7.894,2.475 8.518,2.475 8.014,2.839 8.205,3.43 7.705,3.065 7.201,3.43 7.393,2.839 
		6.89,2.475 7.511,2.475 	"/>
	<polygon fill="#FFFFFF" points="9.538,3.256 9.729,3.846 10.351,3.846 9.848,4.212 10.041,4.802 9.538,4.437 9.035,4.802 
		9.227,4.212 8.726,3.846 9.346,3.846 	"/>
	<polygon fill="#FFFFFF" points="5.837,3.256 6.029,3.846 6.65,3.846 6.147,4.212 6.339,4.802 5.837,4.437 5.334,4.802 5.527,4.212 
		5.024,3.846 5.644,3.846 	"/>
	<polygon fill="#FFFFFF" points="8.835,5.442 9.027,6.032 9.65,6.032 9.147,6.397 9.338,6.988 8.835,6.623 8.333,6.988 8.526,6.397 
		8.023,6.032 8.644,6.032 	"/>
	<polygon fill="#FFFFFF" points="6.555,5.442 6.746,6.032 7.369,6.032 6.866,6.397 7.058,6.988 6.555,6.623 6.053,6.988 
		6.244,6.397 5.741,6.032 6.363,6.032 	"/>
</g>
</svg>
