<?xml version="1.0" encoding="utf-8"?>
<!-- Generator: Adobe Illustrator 18.0.0, SVG Export Plug-In . SVG Version: 6.00 Build 0)  -->
<!DOCTYPE svg PUBLIC "-//W3C//DTD SVG 1.1//EN" "http://www.w3.org/Graphics/SVG/1.1/DTD/svg11.dtd">
<svg version="1.1" id="Layer_1" xmlns="http://www.w3.org/2000/svg" xmlns:xlink="http://www.w3.org/1999/xlink" x="0px" y="0px"
	 viewBox="0 0 100 100" enable-background="new 0 0 100 100" xml:space="preserve">
<path fill="#999999" d="M98,39c-0.7-2.2-2.6-3.8-4.8-4.1l-25.5-4.1l-12.2-26c-1-2.1-3.1-3.5-5.5-3.5c-2.3,0-4.5,1.4-5.5,3.5
	l-12.2,26L6.8,34.9c-2.2,0.4-4.1,2-4.8,4.1c-0.2,0.6-0.3,1.3-0.3,1.9c0,1.6,0.6,3.1,1.8,4.3l18.8,19l-5.4,27.2
	c-0.5,2.3,0.5,4.7,2.4,6.1c1.1,0.8,2.3,1.2,3.6,1.2c1,0,2-0.3,2.9-0.8L50,84.3l24.2,13.6c0.9,0.5,1.9,0.8,2.9,0.8
	c1.3,0,2.5-0.4,3.6-1.2c1.9-1.4,2.8-3.8,2.4-6.1l-5.4-27.2l18.8-19c1.1-1.2,1.8-2.7,1.8-4.3C98.3,40.2,98.2,39.6,98,39z"/>
</svg>
